<svg xmlns="http://www.w3.org/2000/svg" xmlns:xlink="http://www.w3.org/1999/xlink" width="144" zoomAndPan="magnify" viewBox="0 0 108 40.499999" height="54" preserveAspectRatio="xMidYMid meet" version="1.0"><defs><g/><clipPath id="14e369ca8a"><path d="M 29.832031 0 L 71 0 L 71 13.777344 L 29.832031 13.777344 Z M 29.832031 0 " clip-rule="nonzero"/></clipPath><clipPath id="d10fb79f15"><path d="M 54 0 L 77.589844 0 L 77.589844 13.777344 L 54 13.777344 Z M 54 0 " clip-rule="nonzero"/></clipPath></defs><g clip-path="url(#14e369ca8a)"><path fill="#0097b2" d="M 30.558594 13.585938 L 50.039062 0.984375 C 50.039062 0.984375 69.519531 13.585938 69.519531 13.585938 C 69.71875 13.71875 69.988281 13.660156 70.121094 13.457031 C 70.25 13.257812 70.191406 12.988281 69.992188 12.855469 C 69.992188 12.855469 50.273438 0.101562 50.273438 0.101562 C 50.128906 0.0078125 49.945312 0.0078125 49.800781 0.101562 C 49.800781 0.101562 30.085938 12.855469 30.085938 12.855469 C 29.882812 12.988281 29.828125 13.257812 29.957031 13.457031 C 30.085938 13.660156 30.355469 13.71875 30.558594 13.585938 Z M 30.558594 13.585938 " fill-opacity="1" fill-rule="evenodd"/></g><g clip-path="url(#d10fb79f15)"><path fill="#0097b2" d="M 54.855469 3.5625 L 58.4375 1.242188 C 58.4375 1.242188 76.855469 13.324219 76.855469 13.324219 C 77.054688 13.457031 77.324219 13.402344 77.457031 13.199219 C 77.589844 13 77.53125 12.730469 77.332031 12.597656 C 77.332031 12.597656 58.679688 0.359375 58.679688 0.359375 C 58.535156 0.265625 58.347656 0.265625 58.203125 0.359375 C 58.203125 0.359375 56.617188 1.382812 54.382812 2.832031 C 54.179688 2.960938 54.121094 3.230469 54.253906 3.433594 C 54.382812 3.632812 54.652344 3.691406 54.855469 3.5625 Z M 54.855469 3.5625 " fill-opacity="1" fill-rule="evenodd"/></g><path fill="#0097b2" d="M 41.140625 6.351562 L 41.140625 3.0625 C 41.140625 2.824219 40.945312 2.632812 40.707031 2.632812 L 37.082031 2.632812 C 36.839844 2.632812 36.648438 2.824219 36.648438 3.0625 L 36.648438 8.847656 C 36.648438 9.085938 36.839844 9.28125 37.082031 9.28125 C 37.320312 9.28125 37.515625 9.085938 37.515625 8.847656 L 37.515625 3.496094 C 37.515625 3.496094 40.273438 3.496094 40.273438 3.496094 L 40.273438 6.351562 C 40.273438 6.589844 40.464844 6.785156 40.707031 6.785156 C 40.945312 6.785156 41.140625 6.589844 41.140625 6.351562 Z M 41.140625 6.351562 " fill-opacity="1" fill-rule="evenodd"/><g fill="#0097b2" fill-opacity="1"><g transform="translate(15.068128, 25.270093)"><g><path d="M 5.625 -9.359375 L 5.625 0 L 3.703125 0 L 3.703125 -3.515625 L 2.390625 -3.515625 L 2.390625 0 L 0.453125 0 L 0.453125 -9.359375 L 2.390625 -9.359375 L 2.390625 -5.859375 L 3.703125 -5.859375 L 3.703125 -9.359375 Z M 5.625 -9.359375 "/></g></g></g><g fill="#0097b2" fill-opacity="1"><g transform="translate(26.998456, 25.270093)"><g><path d="M 4.1875 -1.328125 L 2.28125 -1.328125 L 2 0 L 0.109375 0 L 2.25 -9.359375 L 4.234375 -9.359375 L 6.359375 0 L 4.46875 0 Z M 3.703125 -3.484375 L 3.234375 -6.265625 L 2.765625 -3.484375 Z M 3.703125 -3.484375 "/></g></g></g><g fill="#0097b2" fill-opacity="1"><g transform="translate(39.321411, 25.270093)"><g><path d="M 2.15625 -9.359375 L 0.171875 -9.359375 L 2.46875 0 L 4.34375 0 L 6.65625 -9.359375 L 4.671875 -9.359375 L 3.40625 -3.984375 Z M 2.15625 -9.359375 "/></g></g></g><g fill="#0097b2" fill-opacity="1"><g transform="translate(51.999615, 25.270093)"><g><path d="M 2.390625 -7.171875 L 2.390625 -5.765625 L 4.90625 -5.765625 L 4.90625 -3.609375 L 2.390625 -3.609375 L 2.390625 -2.203125 L 4.90625 -2.203125 L 4.90625 0 L 0.453125 0 L 0.453125 -9.359375 L 4.90625 -9.359375 L 4.90625 -7.171875 Z M 2.390625 -7.171875 "/></g></g></g><g fill="#0097b2" fill-opacity="1"><g transform="translate(63.182066, 25.270093)"><g><path d="M 0.453125 0 L 0.453125 -9.359375 L 2.03125 -9.359375 L 3.703125 -4.96875 L 3.703125 -9.359375 L 5.625 -9.359375 L 5.625 0 L 4.046875 0 L 2.390625 -4.390625 L 2.390625 0 Z M 0.453125 0 "/></g></g></g><g fill="#0097b2" fill-opacity="1"><g transform="translate(75.112395, 25.270093)"><g><path d="M 4.90625 -2.34375 L 4.90625 0 L 0.453125 0 L 0.453125 -9.359375 L 2.390625 -9.359375 L 2.390625 -2.34375 Z M 4.90625 -2.34375 "/></g></g></g><g fill="#0097b2" fill-opacity="1"><g transform="translate(86.238747, 25.270093)"><g><path d="M 5.96875 -9.359375 L 4.046875 -3.828125 L 4.046875 0 L 2.09375 0 L 2.09375 -3.828125 L 0.171875 -9.359375 L 2.1875 -9.359375 L 3.0625 -6.0625 L 3.953125 -9.359375 Z M 5.96875 -9.359375 "/></g></g></g><g fill="#0097b2" fill-opacity="1"><g transform="translate(41.664333, 36.104304)"><g><path d="M 1.671875 0.0625 C 2.148438 0.0703125 2.519531 -0.046875 2.78125 -0.296875 C 3.039062 -0.546875 3.171875 -0.898438 3.171875 -1.359375 C 3.171875 -1.660156 3.097656 -1.914062 2.953125 -2.125 C 2.816406 -2.332031 2.648438 -2.507812 2.453125 -2.65625 C 2.253906 -2.800781 2.050781 -2.921875 1.84375 -3.015625 C 1.644531 -3.117188 1.472656 -3.210938 1.328125 -3.296875 C 1.191406 -3.390625 1.125 -3.484375 1.125 -3.578125 C 1.125 -3.816406 1.296875 -3.9375 1.640625 -3.9375 C 1.972656 -3.9375 2.164062 -3.707031 2.21875 -3.25 L 3.09375 -3.5625 C 3.03125 -4.0625 2.867188 -4.441406 2.609375 -4.703125 C 2.359375 -4.972656 2.035156 -5.109375 1.640625 -5.109375 C 1.171875 -5.109375 0.804688 -4.988281 0.546875 -4.75 C 0.285156 -4.507812 0.15625 -4.160156 0.15625 -3.703125 C 0.15625 -3.398438 0.222656 -3.148438 0.359375 -2.953125 C 0.492188 -2.753906 0.660156 -2.582031 0.859375 -2.4375 C 1.054688 -2.289062 1.253906 -2.164062 1.453125 -2.0625 C 1.660156 -1.96875 1.832031 -1.875 1.96875 -1.78125 C 2.101562 -1.6875 2.171875 -1.585938 2.171875 -1.484375 C 2.171875 -1.253906 2.003906 -1.140625 1.671875 -1.140625 C 1.523438 -1.140625 1.398438 -1.195312 1.296875 -1.3125 C 1.191406 -1.425781 1.125 -1.585938 1.09375 -1.796875 L 0.21875 -1.5 C 0.289062 -1 0.453125 -0.609375 0.703125 -0.328125 C 0.960938 -0.0546875 1.285156 0.0703125 1.671875 0.0625 Z M 1.671875 0.0625 "/></g></g></g><g fill="#0097b2" fill-opacity="1"><g transform="translate(48.565487, 36.104304)"><g><path d="M 3.015625 -3.796875 L 2.140625 -3.796875 L 2.140625 0 L 1.09375 0 L 1.09375 -3.796875 L 0.21875 -3.796875 L 0.21875 -5.0625 L 3.015625 -5.0625 Z M 3.015625 -3.796875 "/></g></g></g><g fill="#0097b2" fill-opacity="1"><g transform="translate(55.37564, 36.104304)"><g><path d="M 2.265625 -0.71875 L 1.234375 -0.71875 L 1.078125 0 L 0.0625 0 L 1.21875 -5.0625 L 2.28125 -5.0625 L 3.4375 0 L 2.421875 0 Z M 2 -1.875 L 1.75 -3.390625 L 1.5 -1.875 Z M 2 -1.875 "/></g></g></g><g fill="#0097b2" fill-opacity="1"><g transform="translate(62.448692, 36.104304)"><g><path d="M 3.21875 -5.0625 L 2.1875 -2.078125 L 2.1875 0 L 1.125 0 L 1.125 -2.078125 L 0.09375 -5.0625 L 1.1875 -5.0625 L 1.65625 -3.28125 L 2.140625 -5.0625 Z M 3.21875 -5.0625 "/></g></g></g></svg>