<svg xmlns="http://www.w3.org/2000/svg" xmlns:xlink="http://www.w3.org/1999/xlink" width="116" zoomAndPan="magnify" viewBox="0 0 87 32.249999" height="43" preserveAspectRatio="xMidYMid meet" version="1.0"><defs><g/><clipPath id="036df8e147"><path d="M 24.269531 0 L 57 0 L 57 10.996094 L 24.269531 10.996094 Z M 24.269531 0 " clip-rule="nonzero"/></clipPath><clipPath id="7c938be8e3"><path d="M 43 0 L 62.382812 0 L 62.382812 10.996094 L 43 10.996094 Z M 43 0 " clip-rule="nonzero"/></clipPath></defs><g clip-path="url(#036df8e147)"><path fill="#ffffff" d="M 24.851562 10.84375 L 40.394531 0.785156 C 40.394531 0.785156 55.941406 10.84375 55.941406 10.84375 C 56.101562 10.945312 56.316406 10.902344 56.421875 10.738281 C 56.523438 10.578125 56.480469 10.363281 56.316406 10.257812 C 56.316406 10.257812 40.585938 0.0820312 40.585938 0.0820312 C 40.46875 0.0078125 40.320312 0.0078125 40.207031 0.0820312 C 40.207031 0.0820312 24.472656 10.257812 24.472656 10.257812 C 24.3125 10.363281 24.265625 10.578125 24.371094 10.738281 C 24.472656 10.902344 24.6875 10.945312 24.851562 10.84375 Z M 24.851562 10.84375 " fill-opacity="1" fill-rule="evenodd"/></g><g clip-path="url(#7c938be8e3)"><path fill="#ffffff" d="M 44.238281 2.84375 L 47.097656 0.992188 C 47.097656 0.992188 61.796875 10.632812 61.796875 10.632812 C 61.957031 10.738281 62.171875 10.695312 62.277344 10.535156 C 62.382812 10.375 62.335938 10.160156 62.175781 10.054688 C 62.175781 10.054688 47.289062 0.289062 47.289062 0.289062 C 47.175781 0.210938 47.027344 0.210938 46.910156 0.285156 C 46.910156 0.285156 45.644531 1.105469 43.863281 2.257812 C 43.699219 2.363281 43.65625 2.578125 43.757812 2.738281 C 43.863281 2.898438 44.078125 2.945312 44.238281 2.84375 Z M 44.238281 2.84375 " fill-opacity="1" fill-rule="evenodd"/></g><path fill="#ffffff" d="M 33.292969 5.066406 L 33.292969 2.445312 C 33.292969 2.253906 33.136719 2.101562 32.949219 2.101562 L 30.054688 2.101562 C 29.863281 2.101562 29.707031 2.253906 29.707031 2.445312 L 29.707031 7.0625 C 29.707031 7.253906 29.863281 7.40625 30.054688 7.40625 C 30.246094 7.40625 30.402344 7.253906 30.402344 7.0625 L 30.402344 2.792969 C 30.402344 2.792969 32.601562 2.792969 32.601562 2.792969 L 32.601562 5.066406 C 32.601562 5.257812 32.757812 5.414062 32.949219 5.414062 C 33.136719 5.414062 33.292969 5.257812 33.292969 5.066406 Z M 33.292969 5.066406 " fill-opacity="1" fill-rule="evenodd"/><g fill="#ffffff" fill-opacity="1"><g transform="translate(12.488015, 20.166453)"><g><path d="M 4.484375 -7.453125 L 4.484375 0 L 2.953125 0 L 2.953125 -2.796875 L 1.90625 -2.796875 L 1.90625 0 L 0.359375 0 L 0.359375 -7.453125 L 1.90625 -7.453125 L 1.90625 -4.671875 L 2.953125 -4.671875 L 2.953125 -7.453125 Z M 4.484375 -7.453125 "/></g></g></g><g fill="#ffffff" fill-opacity="1"><g transform="translate(22.00885, 20.166453)"><g><path d="M 3.34375 -1.0625 L 1.8125 -1.0625 L 1.59375 0 L 0.09375 0 L 1.796875 -7.453125 L 3.375 -7.453125 L 5.0625 0 L 3.5625 0 Z M 2.953125 -2.765625 L 2.578125 -5 L 2.203125 -2.765625 Z M 2.953125 -2.765625 "/></g></g></g><g fill="#ffffff" fill-opacity="1"><g transform="translate(31.843016, 20.166453)"><g><path d="M 1.71875 -7.453125 L 0.140625 -7.453125 L 1.96875 0 L 3.453125 0 L 5.3125 -7.453125 L 3.734375 -7.453125 L 2.71875 -3.171875 Z M 1.71875 -7.453125 "/></g></g></g><g fill="#ffffff" fill-opacity="1"><g transform="translate(41.960684, 20.166453)"><g><path d="M 1.90625 -5.703125 L 1.90625 -4.59375 L 3.90625 -4.59375 L 3.90625 -2.875 L 1.90625 -2.875 L 1.90625 -1.765625 L 3.90625 -1.765625 L 3.90625 0 L 0.359375 0 L 0.359375 -7.453125 L 3.90625 -7.453125 L 3.90625 -5.703125 Z M 1.90625 -5.703125 "/></g></g></g><g fill="#ffffff" fill-opacity="1"><g transform="translate(50.884687, 20.166453)"><g><path d="M 0.359375 0 L 0.359375 -7.453125 L 1.625 -7.453125 L 2.953125 -3.96875 L 2.953125 -7.453125 L 4.484375 -7.453125 L 4.484375 0 L 3.21875 0 L 1.90625 -3.5 L 1.90625 0 Z M 0.359375 0 "/></g></g></g><g fill="#ffffff" fill-opacity="1"><g transform="translate(60.405524, 20.166453)"><g><path d="M 3.90625 -1.859375 L 3.90625 0 L 0.359375 0 L 0.359375 -7.453125 L 1.90625 -7.453125 L 1.90625 -1.859375 Z M 3.90625 -1.859375 "/></g></g></g><g fill="#ffffff" fill-opacity="1"><g transform="translate(69.284757, 20.166453)"><g><path d="M 4.75 -7.453125 L 3.21875 -3.0625 L 3.21875 0 L 1.671875 0 L 1.671875 -3.0625 L 0.140625 -7.453125 L 1.75 -7.453125 L 2.453125 -4.828125 L 3.140625 -7.453125 Z M 4.75 -7.453125 "/></g></g></g><g fill="#ffffff" fill-opacity="1"><g transform="translate(33.712753, 28.812548)"><g><path d="M 1.34375 0.046875 C 1.726562 0.0546875 2.019531 -0.0351562 2.21875 -0.234375 C 2.425781 -0.429688 2.53125 -0.71875 2.53125 -1.09375 C 2.53125 -1.332031 2.472656 -1.535156 2.359375 -1.703125 C 2.253906 -1.867188 2.117188 -2.007812 1.953125 -2.125 C 1.796875 -2.238281 1.632812 -2.332031 1.46875 -2.40625 C 1.3125 -2.488281 1.175781 -2.566406 1.0625 -2.640625 C 0.957031 -2.710938 0.90625 -2.785156 0.90625 -2.859375 C 0.90625 -3.046875 1.039062 -3.140625 1.3125 -3.140625 C 1.570312 -3.140625 1.722656 -2.960938 1.765625 -2.609375 L 2.46875 -2.84375 C 2.414062 -3.238281 2.285156 -3.546875 2.078125 -3.765625 C 1.878906 -3.984375 1.625 -4.09375 1.3125 -4.09375 C 0.9375 -4.09375 0.644531 -3.992188 0.4375 -3.796875 C 0.226562 -3.597656 0.125 -3.316406 0.125 -2.953125 C 0.125 -2.722656 0.175781 -2.523438 0.28125 -2.359375 C 0.382812 -2.191406 0.515625 -2.050781 0.671875 -1.9375 C 0.835938 -1.832031 1 -1.738281 1.15625 -1.65625 C 1.320312 -1.570312 1.457031 -1.492188 1.5625 -1.421875 C 1.675781 -1.347656 1.734375 -1.269531 1.734375 -1.1875 C 1.734375 -1 1.601562 -0.90625 1.34375 -0.90625 C 1.21875 -0.90625 1.113281 -0.953125 1.03125 -1.046875 C 0.945312 -1.140625 0.894531 -1.269531 0.875 -1.4375 L 0.171875 -1.203125 C 0.234375 -0.796875 0.363281 -0.484375 0.5625 -0.265625 C 0.769531 -0.046875 1.03125 0.0546875 1.34375 0.046875 Z M 1.34375 0.046875 "/></g></g></g><g fill="#ffffff" fill-opacity="1"><g transform="translate(39.220126, 28.812548)"><g><path d="M 2.421875 -3.03125 L 1.71875 -3.03125 L 1.71875 0 L 0.875 0 L 0.875 -3.03125 L 0.171875 -3.03125 L 0.171875 -4.046875 L 2.421875 -4.046875 Z M 2.421875 -3.03125 "/></g></g></g><g fill="#ffffff" fill-opacity="1"><g transform="translate(44.654875, 28.812548)"><g><path d="M 1.8125 -0.578125 L 0.984375 -0.578125 L 0.859375 0 L 0.046875 0 L 0.96875 -4.046875 L 1.828125 -4.046875 L 2.75 0 L 1.9375 0 Z M 1.59375 -1.5 L 1.390625 -2.703125 L 1.203125 -1.5 Z M 1.59375 -1.5 "/></g></g></g><g fill="#ffffff" fill-opacity="1"><g transform="translate(50.299428, 28.812548)"><g><path d="M 2.578125 -4.046875 L 1.75 -1.65625 L 1.75 0 L 0.90625 0 L 0.90625 -1.65625 L 0.078125 -4.046875 L 0.953125 -4.046875 L 1.328125 -2.625 L 1.703125 -4.046875 Z M 2.578125 -4.046875 "/></g></g></g></svg>